<?xml version="1.0" encoding="UTF-8" standalone="no"?><!DOCTYPE svg PUBLIC "-//W3C//DTD SVG 1.1//EN" "http://www.w3.org/Graphics/SVG/1.1/DTD/svg11.dtd"><svg width="100%" height="100%" viewBox="0 0 596 842" version="1.1" xmlns="http://www.w3.org/2000/svg" xmlns:xlink="http://www.w3.org/1999/xlink" xml:space="preserve" style="fill-rule:evenodd;clip-rule:evenodd;stroke-linecap:round;stroke-linejoin:round;stroke-miterlimit:1.41421;"><g><path d="M186.521,99.447l0,47.373c-0.067,5.331 -2.294,8.098 -6.478,8.098c-4.116,0 -6.411,-2.733 -6.613,-7.963l-18.76,0c-0.068,15.926 10.864,22.539 24.158,22.539c15.319,0 26.116,-9.178 26.184,-22.674l0,-47.373l-18.491,0Z" style="fill-rule:nonzero;stroke:#000;stroke-width:5px;"/><path d="M254.814,99.447l0,42.649c0,6.445 -4.623,11.067 -11.067,11.067c-6.445,0 -11.067,-4.622 -11.067,-11.067l0,-42.649l-18.76,0l0,44.269c0,15.791 11.944,25.643 29.827,25.643c17.748,0 29.827,-9.852 29.827,-25.643l0,-44.269l-18.76,0Z" style="fill-rule:nonzero;stroke:#000;stroke-width:5px;"/><path d="M319.733,121.041l17.95,0c-0.068,-13.564 -10.527,-22.539 -27.263,-22.539c-16.432,0 -28.039,8.84 -27.938,22c-0.034,10.797 7.457,16.803 19.705,19.435l6.883,1.484c7.693,1.687 10.325,3.611 10.393,6.748c-0.068,3.408 -3.172,5.804 -9.178,5.804c-7.187,0 -11.438,-3.374 -11.742,-9.718l-17.816,0c0.068,17.344 11.81,25.104 29.828,25.104c17.512,0 28.005,-7.558 28.073,-21.19c-0.068,-10.527 -6.344,-17.916 -21.595,-21.189l-5.668,-1.215c-6.546,-1.383 -9.482,-3.306 -9.313,-6.613c0.034,-3.037 2.564,-5.264 8.368,-5.264c6.073,0 8.941,2.666 9.313,7.153Z" style="fill-rule:nonzero;stroke:#000;stroke-width:5px;"/><path d="M343.891,114.563l20.785,0l0,53.986l18.49,0l0,-53.986l20.785,0l0,-15.116l-60.06,0l0,15.116Z" style="fill-rule:nonzero;stroke:#000;stroke-width:5px;"/><path d="M229.913,194.463l0,42.649c0,6.444 -4.623,11.067 -11.067,11.067c-6.445,0 -11.067,-4.623 -11.067,-11.067l0,-42.649l-18.761,0l0,44.268c0,15.791 11.945,25.644 29.828,25.644c17.748,0 29.827,-9.853 29.827,-25.644l0,-44.268l-18.76,0Z" style="fill-rule:nonzero;stroke:#000;stroke-width:5px;"/><path d="M294.831,216.057l17.951,0c-0.068,-13.564 -10.528,-22.539 -27.263,-22.539c-16.432,0 -28.039,8.84 -27.938,21.999c-0.034,10.798 7.457,16.804 19.705,19.435l6.883,1.485c7.693,1.687 10.325,3.61 10.392,6.748c-0.067,3.408 -3.171,5.804 -9.177,5.804c-7.187,0 -11.439,-3.374 -11.742,-9.718l-17.816,0c0.068,17.343 11.81,25.104 29.828,25.104c17.511,0 28.005,-7.558 28.073,-21.19c-0.068,-10.527 -6.344,-17.916 -21.595,-21.189l-5.668,-1.215c-6.546,-1.383 -9.482,-3.307 -9.313,-6.613c0.034,-3.037 2.564,-5.264 8.368,-5.264c6.073,0 8.941,2.666 9.312,7.153Z" style="fill-rule:nonzero;stroke:#000;stroke-width:5px;"/><path d="M320.88,263.565l49.667,0l0,-15.116l-30.907,0l0,-11.877l28.478,0l0,-15.116l-28.478,0l0,-11.877l31.042,0l0,-15.116l-49.802,0l0,69.102Z" style="fill-rule:nonzero;stroke:#000;stroke-width:5px;"/><rect x="232.967" y="289.479" width="18.76" height="69.102" style="fill:#53c1de;fill-rule:nonzero;stroke:#53c1de;stroke-width:5px;"/><path d="M258.745,304.595l20.785,0l0,53.986l18.49,0l0,-53.986l20.785,0l0,-15.116l-60.06,0l0,15.116Z" style="fill:#53c1de;fill-rule:nonzero;stroke:#53c1de;stroke-width:5px;"/><path d="M332.976,359.661c4.96,0 9.381,-4.184 9.448,-9.448c-0.067,-5.129 -4.488,-9.313 -9.448,-9.313c-5.229,0 -9.515,4.184 -9.447,9.313c-0.068,5.264 4.218,9.448 9.447,9.448Z" style="fill:#53c1de;fill-rule:nonzero;stroke:#53c1de;stroke-width:5px;"/></g></svg>